<svg id="Layer_1" data-name="Layer 1" xmlns="http://www.w3.org/2000/svg" viewBox="0 0 32 23.4"><defs><style>.cls-1{fill:#f8f0e7;}.cls-1,.cls-2,.cls-3{fill-rule:evenodd;}.cls-3{fill:#c79e77;}</style></defs><path class="cls-1" d="M25.2,6.91a2.78,2.78,0,0,1-.12,5.46c.06-.46.1-1,.12-1.56V10.7h0a.41.41,0,0,0,0-.12ZM23.59,17H24.7A7.35,7.35,0,0,0,25.2,2.3,2.41,2.41,0,0,0,22.79,0H2.41A2.37,2.37,0,0,0,.71.71,2.37,2.37,0,0,0,0,2.41S0,10.91,0,11v0A12.6,12.6,0,0,0,23.59,17Z"/><path class="cls-2" d="M24.41,13,25,13a3.34,3.34,0,0,0-.32-6.67h0V10.8A15.51,15.51,0,0,1,24.41,13Zm-1.16,3.4h1.44a6.78,6.78,0,0,0,0-13.56h0V2.41A1.84,1.84,0,0,0,22.79.57H2.41A1.84,1.84,0,0,0,.57,2.41s0,8.45,0,8.48a12,12,0,0,0,22.67,5.5Z"/><path class="cls-1" d="M23.07,4.06a5.85,5.85,0,0,1,1.58-.21,5.78,5.78,0,0,1,0,11.56A13.42,13.42,0,0,0,25.07,14a4.35,4.35,0,1,0-2-8.36Z"/><path class="cls-1" d="M3.14,10.79h0a9.46,9.46,0,0,0,18.92,0h0V1.57h.73a.8.8,0,0,1,.59.25.82.82,0,0,1,.25.59V10.8a11,11,0,0,1-22,0h0V2.41a.85.85,0,0,1,.84-.84h.73Z"/><path class="cls-3" d="M4.5,11.28a5.36,5.36,0,0,0,3.14,1.41,5.75,5.75,0,0,0,3.77-1.17c1.1-.74,2.12-1.7,3.11-2.48a5.76,5.76,0,0,1,6.17-.45V10.2a5.74,5.74,0,0,1,0,.6,8.12,8.12,0,0,1-16.22.48Z"/><path class="cls-1" d="M20.69,7.74A6.43,6.43,0,0,0,14,8.43c-1,.77-2,1.72-3.06,2.44a5,5,0,0,1-3.26,1,4.51,4.51,0,0,1-3.21-1.79V1.58H20.69Z"/><path class="cls-2" d="M9.07,2.34H7L7,16.07H15L15.2,16A5,5,0,0,0,19,11.62a4.58,4.58,0,0,0-.72-2.75,5,5,0,0,0,.44-2.28A4.38,4.38,0,0,0,14.5,2.34H9.07Z"/><path class="cls-1" d="M9.16,13.81v.12h5.55a2.78,2.78,0,0,0,2.2-2.43A2.6,2.6,0,0,0,16,9.38l-.35-.26.28-.33a3.27,3.27,0,0,0,.73-2.09,2.27,2.27,0,0,0-2.17-2.23H9.25l-.1.12ZM9.07,3.26h5.42a3.47,3.47,0,0,1,3.35,3.38,4.26,4.26,0,0,1-.56,2.24l0,.07.05.07a3.72,3.72,0,0,1,.83,2.55A4,4,0,0,1,15,15.1l-.15,0H8V4.64Z"/><path class="cls-1" d="M10.56,12.52V5.87h4.17L15,7a.4.4,0,0,1-.07.36.39.39,0,0,1-.32.16H12.26l-.92.9h3.1a.23.23,0,0,1,.18.07.25.25,0,0,1,.08.18V9.75a.25.25,0,0,1-.08.18.23.23,0,0,1-.18.07h-3.1l.92.9h2.38a.41.41,0,0,1,.39.52l-.3,1.1Z"/><polygon class="cls-3" points="8.65 3.14 7.78 4.14 7.78 3.14 8.65 3.14"/></svg>