<svg id="Layer_1" data-name="Layer 1" xmlns="http://www.w3.org/2000/svg" viewBox="0 0 256 187.16"><defs><style>.cls-1{fill:#181818;}.cls-2{fill:#f8f0e7;}.cls-2,.cls-3,.cls-4{fill-rule:evenodd;}.cls-4{fill:#c79e77;}</style></defs><rect class="cls-1" x="-0.02" y="0.06" width="256" height="187"/><path class="cls-2" d="M201.61,55.29a22.19,22.19,0,0,1-1,43.66c.47-3.67.81-7.64,1-12.43,0-.31,0-.61,0-.92h-.09a4.58,4.58,0,0,0,.09-.95ZM188.7,135.75l.92,0s6.52.09,7.94.08a58.83,58.83,0,0,0,4-117.49A19.26,19.26,0,0,0,182.35,0h-5.86c-2.14,0-8.85.09-10.94.09H36.11C34,.09,27.28,0,25.13,0H19.26A19.26,19.26,0,0,0,0,19.26S0,87.32.06,87.58l0-.41A100.8,100.8,0,0,0,188.7,135.75Z"/><path class="cls-3" d="M195.28,103.94c1.28-.06,2.71-.11,4.51-.29a26.74,26.74,0,0,0-2.62-53.36h-.12V85.64c0,.24,0,.49,0,.73A120.57,120.57,0,0,1,195.28,103.94ZM186,131.1l3.68.12s6.41.09,7.81.08a54.27,54.27,0,0,0-.36-108.53h-.12V19.26a14.7,14.7,0,0,0-14.7-14.7h-5.86c-2.14,0-8.85.1-10.94.1H36.11c-2.1,0-8.83-.1-11-.1H19.26a14.72,14.72,0,0,0-14.7,14.7s0,67.61,0,67.87A96.24,96.24,0,0,0,186,131.1Z"/><path class="cls-2" d="M184.59,32.52a46.25,46.25,0,1,1,12.89,90.76c1.31-4.07,2.35-8.27,3.08-11.65a34.76,34.76,0,1,0-16.26-66.9Z"/><path class="cls-2" d="M25.13,86.28l0,.09a75.68,75.68,0,1,0,151.35,0v0h0V12.58h5.86A6.66,6.66,0,0,1,189,19.26V85.67c0,.23,0,.47,0,.7a88.22,88.22,0,1,1-176.43,0v0h0V19.26a6.67,6.67,0,0,1,6.68-6.68h5.87Z"/><path class="cls-4" d="M36,90.21a42.1,42.1,0,0,0,25.09,11.3c10.93,1.07,20.88-3.14,30.18-9.39,8.75-5.88,16.91-13.56,24.86-19.81,13.28-10.44,30.55-11.88,49.38-3.61V81.57c.11,1.59.17,3.19.17,4.8A64.9,64.9,0,0,1,36,90.21Z"/><path class="cls-2" d="M165.55,62c-20.28-8.13-38.84-5.84-53.22,5.47C104.49,73.58,96.46,81.16,87.84,87c-8.06,5.42-16.63,9.28-26.11,8.35A36,36,0,0,1,36.11,81V12.67H165.55Z"/><path class="cls-3" d="M72.57,18.7H56.12l.09,109.84,63.38-.08,2-.48c4.45-1,29.08-8.72,30.7-35a36.56,36.56,0,0,0-5.78-22.06,40.3,40.3,0,0,0,3.55-18.2C149.19,35.21,135.79,19,116,18.68H72.57Z"/><path class="cls-2" d="M73.3,110.44v1l44.28-.06.11,0c2.5-.6,16.66-4.63,17.57-19.4.66-10.72-7.53-16.93-7.53-16.93L125,72.92l2.27-2.62S133.51,63,133,53.63c-.47-9-7.1-17.67-17.3-17.84H74l-.82,1Zm-.73-84.35h43.31c15.65.26,26.12,13.19,26.84,27a34.28,34.28,0,0,1-4.46,17.95l-.31.57.4.5a29.77,29.77,0,0,1,6.6,20.4c-1.31,21.3-21.41,27.39-25,28.25l-1.21.28-55.12.07-.09-84Z"/><path class="cls-2" d="M84.52,100.17V46.94h33.3l2.43,8.83a3.25,3.25,0,0,1-3.14,4.12H98l-7.32,7.2h24.82a2,2,0,0,1,1.45.59,2.09,2.09,0,0,1,.6,1.45V78a2.09,2.09,0,0,1-.6,1.45,2,2,0,0,1-1.45.59H90.72L98,87.22h19.07a3.25,3.25,0,0,1,3.14,4.12l-2.43,8.83Z"/><polygon class="cls-4" points="69.19 25.12 62.23 33.16 62.23 25.12 69.19 25.12"/></svg>